<?xml version="1.0" encoding="iso-8859-1"?>
<!-- Generator: Adobe Illustrator 18.0.0, SVG Export Plug-In . SVG Version: 6.00 Build 0)  -->
<!DOCTYPE svg PUBLIC "-//W3C//DTD SVG 1.1//EN" "http://www.w3.org/Graphics/SVG/1.1/DTD/svg11.dtd">
<svg version="1.1" id="Capa_1" xmlns="http://www.w3.org/2000/svg" xmlns:xlink="http://www.w3.org/1999/xlink" x="0px" y="0px"
	 viewBox="0 0 494.289 494.289" style="enable-background:new 0 0 494.289 494.289;" xml:space="preserve">
<g id="XMLID_9_">
	<path id="XMLID_15_" d="M419.215,247.14c0-115.571-94.037-209.591-209.608-209.591C94.037,37.549,0,131.569,0,247.14
		s94.037,209.6,209.606,209.6c14.146,0,25.62-11.467,25.62-25.62c0-14.152-11.475-25.619-25.62-25.619
		c-87.333,0-158.367-71.036-158.367-158.361c0-87.316,71.034-158.352,158.367-158.352s158.37,71.036,158.37,158.352
		c0,14.153,11.477,25.62,25.619,25.62C407.741,272.76,419.215,261.293,419.215,247.14z"/>
	<path id="XMLID_14_" d="M349.547,407.344h-40.766v-0.441l13.395-11.184c21.017-18.764,38.662-38.203,38.662-62.555
		c0-26.362-18.113-45.586-50.955-45.586c-14.462,0-27.47,3.629-37.695,8.832c-5.82,2.961-8.438,9.833-6.037,15.912l0.334,0.826
		c1.251,3.203,3.82,5.73,7.021,6.972c3.219,1.251,6.806,1.101,9.89-0.417c5.806-2.827,12.427-4.861,19.565-4.861
		c16.746,0,23.9,9.374,23.9,21.224c-0.432,16.979-15.861,33.292-47.586,61.664l-16.262,14.719c-1.584,1.443-2.501,3.494-2.501,5.655
		v9.54c0,4.211,3.419,7.631,7.639,7.631h81.396c7.707,0,13.959-6.255,13.959-13.961
		C363.506,413.599,357.254,407.344,349.547,407.344z"/>
	<path id="XMLID_11_" d="M481.563,375.17h-4.704v-77.501c0-4.212-3.42-7.63-7.639-7.63h-29.674c-2.635,0-5.088,1.359-6.471,3.603
		l-51.59,83.03c-0.751,1.209-1.149,2.602-1.149,4.027v12.31c0,4.211,3.419,7.631,7.639,7.631h56.71v18.556
		c0,8.881,7.204,16.078,16.079,16.078c8.89,0,16.095-7.206,16.095-16.096V400.64h4.686c7.04,0,12.744-5.705,12.744-12.735
		C494.289,380.874,488.585,375.17,481.563,375.17z M444.685,343.005v32.165h-32.627v-0.442l19.449-31.724
		c4.904-9.165,8.707-17.664,13.41-27.037h0.885C445.135,325.341,444.685,334.29,444.685,343.005z"/>
	<path id="XMLID_10_" d="M209.607,115.127c-10.218,0-18.5,8.283-18.5,18.5v102.114c0,16.769,13.643,30.411,30.411,30.411h74.206
		c10.218,0,18.5-8.283,18.5-18.5s-8.282-18.5-18.5-18.5h-67.617v-95.525C228.107,123.41,219.824,115.127,209.607,115.127z"/>
</g>
<g>
</g>
<g>
</g>
<g>
</g>
<g>
</g>
<g>
</g>
<g>
</g>
<g>
</g>
<g>
</g>
<g>
</g>
<g>
</g>
<g>
</g>
<g>
</g>
<g>
</g>
<g>
</g>
<g>
</g>
</svg>
