<?xml version="1.0" encoding="iso-8859-1"?>
<!-- Generator: Adobe Illustrator 18.1.1, SVG Export Plug-In . SVG Version: 6.00 Build 0)  -->
<svg version="1.1" id="Capa_1" xmlns="http://www.w3.org/2000/svg" xmlns:xlink="http://www.w3.org/1999/xlink" x="0px" y="0px"
	 viewBox="0 0 29.175 29.175" style="enable-background:new 0 0 29.175 29.175;" xml:space="preserve">
<g>
	<g>
		<polygon style="fill:#010002;" points="23.719,15.472 23.013,14.766 21.834,15.938 21.834,18.488 23.719,20.371 		"/>
		<polygon style="fill:#010002;" points="23.719,8.434 21.834,10.294 21.834,12.859 23.013,14.059 23.719,13.335 		"/>
		<path style="fill:#010002;" d="M13.851,2.508V0C10.15,0.185,6.816,1.747,4.344,4.181l1.771,1.767
			C8.134,3.969,10.842,2.687,13.851,2.508z"/>
		<polygon style="fill:#010002;" points="21.49,9.947 23.374,8.062 16.053,8.062 17.939,9.947 		"/>
		<polygon style="fill:#010002;" points="5.908,8.062 7.791,9.947 11.343,9.947 13.228,8.062 		"/>
		<polygon style="fill:#010002;" points="15.692,13.333 16.398,14.06 17.577,12.853 17.577,10.278 15.692,8.419 		"/>
		<polygon style="fill:#010002;" points="15.692,20.392 17.577,18.507 17.577,15.947 16.399,14.767 15.692,15.472 		"/>
		<polygon style="fill:#010002;" points="21.49,18.863 17.937,18.863 16.053,20.745 23.374,20.745 		"/>
		<polygon style="fill:#010002;" points="13.573,8.434 11.689,10.294 11.689,12.859 12.866,14.059 13.573,13.335 		"/>
		<path style="fill:#010002;" d="M2.508,15.323H0.001c0.179,3.575,1.649,6.803,3.943,9.247l1.771-1.772
			C3.875,20.81,2.684,18.208,2.508,15.323z"/>
		<path style="fill:#010002;" d="M5.007,25.596c2.391,2.081,5.461,3.407,8.845,3.578v-2.508c-2.692-0.165-5.143-1.205-7.074-2.839
			L5.007,25.596z"/>
		<polygon style="fill:#010002;" points="6.615,14.405 7.556,15.347 11.578,15.347 12.521,14.405 11.578,13.462 7.556,13.462 		"/>
		<path style="fill:#010002;" d="M5.131,7.049L3.344,5.265c-1.951,2.351-3.182,5.324-3.343,8.583h2.507
			C2.663,11.28,3.624,8.936,5.131,7.049z"/>
		<polygon style="fill:#010002;" points="13.572,15.472 12.865,14.766 11.688,15.938 11.688,18.488 13.572,20.371 		"/>
		<polygon style="fill:#010002;" points="13.228,20.745 11.342,18.863 7.79,18.863 5.907,20.745 		"/>
		<path style="fill:#010002;" d="M24.831,4.181C22.359,1.746,19.025,0.185,15.324,0v2.508c3.01,0.179,5.717,1.461,7.736,3.44
			L24.831,4.181z"/>
		<path style="fill:#010002;" d="M26.667,13.847h2.508c-0.162-3.259-1.393-6.231-3.344-8.583l-1.785,1.785
			C25.55,8.936,26.511,11.28,26.667,13.847z"/>
		<path style="fill:#010002;" d="M23.459,22.798l1.771,1.772c2.296-2.444,3.765-5.672,3.944-9.247h-2.508
			C26.492,18.208,25.3,20.81,23.459,22.798z"/>
		<path style="fill:#010002;" d="M15.324,26.666v2.509c3.382-0.172,6.455-1.498,8.845-3.578l-1.771-1.771
			C20.466,25.461,18.013,26.501,15.324,26.666z"/>
	</g>
</g>
<g>
</g>
<g>
</g>
<g>
</g>
<g>
</g>
<g>
</g>
<g>
</g>
<g>
</g>
<g>
</g>
<g>
</g>
<g>
</g>
<g>
</g>
<g>
</g>
<g>
</g>
<g>
</g>
<g>
</g>
</svg>
