<?xml version="1.0" encoding="iso-8859-1"?>
<!-- Generator: Adobe Illustrator 18.0.0, SVG Export Plug-In . SVG Version: 6.00 Build 0)  -->
<!DOCTYPE svg PUBLIC "-//W3C//DTD SVG 1.1//EN" "http://www.w3.org/Graphics/SVG/1.1/DTD/svg11.dtd">
<svg version="1.1" id="Capa_1" xmlns="http://www.w3.org/2000/svg" xmlns:xlink="http://www.w3.org/1999/xlink" x="0px" y="0px"
	 viewBox="0 0 493.9 493.9" style="enable-background:new 0 0 493.9 493.9;" xml:space="preserve">
<g id="XMLID_109_">
	<path id="XMLID_113_" d="M406.671,0H87.216C56.587,0,31.761,24.829,31.761,55.463v382.975c0,30.633,24.826,55.462,55.455,55.462
		h319.455c30.64,0,55.468-24.829,55.468-55.462V55.463C462.139,24.829,437.311,0,406.671,0z M356.191,35.176
		c14.293,0,25.867,11.582,25.867,25.863c0,14.284-11.574,25.866-25.867,25.866c-14.289,0-25.863-11.581-25.863-25.866
		C330.328,46.758,341.902,35.176,356.191,35.176z M273.425,35.176c14.293,0,25.87,11.582,25.87,25.863
		c0,14.284-11.577,25.866-25.87,25.866c-14.285,0-25.86-11.581-25.86-25.866C247.565,46.758,259.14,35.176,273.425,35.176z
		 M246.948,435.979c-71.71,0-129.834-58.129-129.834-129.836c0-71.71,58.124-129.839,129.834-129.839
		c71.694,0,129.835,58.13,129.835,129.839C376.783,377.851,318.642,435.979,246.948,435.979z M395.328,142.77H98.589
		c-9.158,0-16.56-7.412-16.56-16.554c0-9.141,7.401-16.553,16.56-16.553h296.738c9.147,0,16.551,7.412,16.551,16.553
		C411.878,135.358,404.475,142.77,395.328,142.77z"/>
	<path id="XMLID_110_" d="M246.948,212.304c-51.747,0-93.833,42.094-93.833,93.839c0,51.743,42.086,93.837,93.833,93.837
		c51.748,0,93.835-42.094,93.835-93.837C340.783,254.398,298.696,212.304,246.948,212.304z M246.948,241.273
		c35.77,0,64.872,29.105,64.872,64.871c0,9.182-1.976,17.896-5.429,25.816c-17.927-3.841-33.89-3.007-54.903,0.12
		c-10.71,1.601-24.023-1.14-33.504-6.384c-14.309-7.921-24.295-12.973-35.376-14.202c-0.145-1.794-0.528-3.516-0.528-5.35
		C182.08,270.378,211.172,241.273,246.948,241.273z"/>
</g>
<g>
</g>
<g>
</g>
<g>
</g>
<g>
</g>
<g>
</g>
<g>
</g>
<g>
</g>
<g>
</g>
<g>
</g>
<g>
</g>
<g>
</g>
<g>
</g>
<g>
</g>
<g>
</g>
<g>
</g>
</svg>
